<svg height="56" viewBox="0 0 60 56" width="60" xmlns="http://www.w3.org/2000/svg" xmlns:xlink="http://www.w3.org/1999/xlink"><mask id="a" fill="#fff"><path d="m0 0h60v60h-60z" fill="#fff" fill-rule="evenodd"/></mask><g fill="none" fill-rule="evenodd" mask="url(#a)" transform="translate(0 -3)"><path d="m49.9225907.7736586c-.3213292.00107097-.6249079.14752098-.82575.39835165l-8.4981685 10.62271065c-.2526873.3189896-.3009522.7542948-.1242798 1.1208901.1766724.3665952.5472343.6000563.954179.6011509h3.1868132v17.1208224c-3.0671505.4159981-5.7861501 1.9258911-7.7595587 4.1245989h-6.0499651c-.0711973.001186-.142095.0095271-.2116235.0248975-.4936297.1003902-.8488967.533642-.8506476 1.0373735v14.8717949c.0000587.5866518.4756193 1.0622124 1.0622711 1.062271h6.0541144c2.3355367 2.5998022 5.7126154 4.2490843 9.4733014 4.2490843 7.027535 0 12.747257-5.7196923 12.7472528-12.7472528.0000021-3.5644441-1.4751971-6.7923056-3.8424342-9.1081436v-20.6354461h3.1868132c.4069448-.0010946.7775066-.2345557.954179-.6011509.1766725-.3665953.1284076-.8019005-.1242797-1.1208901l-8.4981685-10.62271065c-.2026599-.25310384-.5098102-.39980255-.8340485-.39835165zm.0041492 2.75941501 6.2864862 7.85914619h-2.0374019c-.5866518.0000586-1.0622124.4756192-1.0622711 1.062271v20.0296181c-1.8586535-1.1742111-4.0354955-1.8760111-6.3736264-1.9502617v-18.0793564c-.0000586-.5866518-.4756192-1.0622124-1.062271-1.062271h-2.0374019zm-33.992674 14.23277259c-.5866518.0000586-1.0622124.4756192-1.062271 1.062271v31.8681319c.0000586.5866518.4756192 1.0622124 1.062271 1.062271h8.4981685c.5866518-.0000586 1.0622124-.4756192 1.0622711-1.062271v-31.8681319c-.0000587-.5866518-.4756193-1.0622124-1.0622711-1.062271zm1.0622711 2.1245421h6.3736264v29.7435897h-6.3736264zm-15.93406594 6.3736264c-.58665181.0000586-1.0622124.4756192-1.06227106 1.062271v23.3699634c.00005866.5866518.47561925 1.0622124 1.06227106 1.062271h8.4981685c.58665184-.0000586 1.06221244-.4756192 1.06227104-1.062271v-23.3699634c-.0000586-.5866518-.4756192-1.0622124-1.06227104-1.062271zm1.06227106 2.1245421h6.37362638v21.2454212h-6.37362638zm44.20873448 4.2490842c5.8793474 0 10.6227149 4.7434652 10.6227107 10.6227106.0000042 5.8794579-4.7433633 10.6227107-10.6227107 10.6227107s-10.6227148-4.7432528-10.6227106-10.6227107c-.0000042-5.8792454 4.7433632-10.6227106 10.6227106-10.6227106zm-.6016767 2.1245422v1.9668607c-.5342501.0656483-1.0160622.1950053-1.448175.3859039-.4321127.1907754-.801509.4363279-1.1079147.7344606-.2985534.298256-.5321277.6484804-.6971154 1.0539726-.1571396.4056134-.2323718.8555276-.2323718 1.3444358 0 .5308657.0890141.9970391.269717 1.4025313.1885574.4054901.4551619.7646142.8008525 1.0747188.3535472.3101024.7789294.5806926 1.2738946.8133002.5028239.2266865 1.0686171.424645 1.6971437.5975275.4713977.1551149.8733759.3185326 1.2033556.4854918.3378319.1669593.6048784.3467614.809151.5435833.2121355.1968239.366322.4083115.4605943.6348726.0942723.2266866.1410824.4743657.1410824.7427612 0 .3219489-.0564342.617222-.1742783.8796922-.1178484.2564258-.2908456.474918-.5186879.6597702-.2199836.1790542-.4957725.3179122-.82575.4190999-.322121.095018-.691513.1452316-1.1079147.1452316-.2985513 0-.59774-.0384436-.8962913-.1161849-.2985512-.0774948-.5697448-.2139775-.8133023-.4108014-.2435596-.1968219-.4399587-.4627827-.5892269-.7967033-.1492703-.3339186-.2240733-.7545205-.2240733-1.2614469h-2.0747471c0 .6738856.1073807 1.251504.3195099 1.734491.2121291.4771849.4971003.874878.8506475 1.1909036.3614016.316151.7730083.5550537 1.2365494.7220129.463539.1675775.94076.2788993 1.4357252.3319597v1.717892h1.6390524v-1.717892c.5892438-.0596019 1.1178597-.1779261 1.5892552-.3568551.4713977-.178931.873378-.4196077 1.2033555-.7178636.3299775-.2981349.5869537-.6484804.7676566-1.0539726.1807008-.4115387.269717-.8730827.269717-1.3859323 0-.5248172-.0844229-.9863633-.2572693-1.3859302-.1728443-.399569-.4298204-.7539427-.7676566-1.0581218-.337834-.3040581-.7540318-.5700189-1.248997-.7967033-.4949652-.2326098-1.0653517-.4375729-1.7095936-.622425-.5028218-.1610361-.928204-.3268311-1.2738946-.4937904-.3378362-.1728824-.6094737-.3568338-.8216008-.5477324-.2121355-.1909007-.366322-.3958638-.4605943-.622425-.08642-.2326076-.1286347-.4938179-.1286347-.7801064 0-.3101024.0422147-.5942216.1286347-.8506454.0942786-.2564258.2300985-.4725428.4107993-.6514717.1885595-.1849754.4221359-.3303599.6971154-.4315476.2749816-.1011877.5980161-.1493808.975133-.1493808.3614037 0 .6839942.0661051.9668323.203325.2828361.1370967.5210036.3280527.7095631.57263.1885659.2444541.3289769.5333259.4232492.8672445.1021416.3340438.1535321.7041986.1535321 1.1037655h2.0622994c0-1.2106725-.3037819-2.1654502-.908741-2.863152-.5971025-.7037482-1.4437156-1.1331267-2.5436399-1.282193v-1.9751613zm-13.863468 2.1245421h3.4399332c-1.0898582 1.8773686-1.7220433 4.0514806-1.7220412 6.3736263-.0000021 2.3241769.6345646 4.4951445 1.7261905 6.3736264h-3.4440825z" fill="#3575d3" fill-rule="nonzero" transform="translate(0 2.355033)"/></g></svg>