<svg height="49" viewBox="0 0 60 49" width="60" xmlns="http://www.w3.org/2000/svg"><g fill="#3575d3"><path d="m39.4745349 33.6849364v2.1053085c0 1.7368796-1.4210833 3.1579628-3.1579628 3.1579628h-18.7372459-.736858l-.5263271.4210617-6.84225273 5.2632714v-3.5790245-2.1053086h-2.10530853-2.10530852c-1.73687954 0-3.15796279-1.4210832-3.15796279-3.1579628v-22.1057395c0-1.7368795 1.42108325-3.1579628 3.15796279-3.1579628h12.10552398v-2.10530849h-12.10552398c-2.89479923 0-5.26327132 2.36847209-5.26327132 5.26327129v22.1057395c0 2.8947993 2.36847209 5.2632714 5.26327132 5.2632714h2.10530852v7.8949069l10.21074636-7.8949069h18.7372459c2.8947992 0 5.2632713-2.3684721 5.2632713-5.2632714v-2.1053085z"/><path d="m54.7380217 2.10530853c1.7368795 0 3.1579628 1.42108325 3.1579628 3.15796279v22.10573948c0 1.7368796-1.4210833 3.1579628-3.1579628 3.1579628h-2.1053085-2.1053086v2.1053086 3.6316572l-6.8422527-5.2632713-.5263271-.4736945h-.736858-18.7372459c-1.7368795 0-3.1579628-1.4210832-3.1579628-3.1579628v-22.10573948c0-1.73687954 1.4210833-3.15796279 3.1579628-3.15796279zm0-2.10530853h-31.0533008c-2.8947992 0-5.2632713 2.36847209-5.2632713 5.26327132v22.10573948c0 2.8947993 2.3684721 5.2632714 5.2632713 5.2632714h18.7372459l10.2107464 7.8949069v-7.8949069h2.1053085c2.8947992 0 5.2632713-2.3684721 5.2632713-5.2632714v-22.10573948c0-2.89479923-2.3684721-5.26327132-5.2632713-5.26327132z"/></g></svg>