<svg height="58" viewBox="0 0 60 58" width="60" xmlns="http://www.w3.org/2000/svg"><g fill="#3575d3" transform="translate(0 -1)"><path d="m18.75 58.7525h-17.5c-.69035594 0-1.25-.5596441-1.25-1.25v-30c0-.6903559.55964406-1.25 1.25-1.25h17.5c.6903559 0 1.25.5596441 1.25 1.25v30c0 .6903559-.5596441 1.25-1.25 1.25zm-16.25-2.5h15v-27.5h-15z"/><path d="m49.375 56.2525h-23.125c-2.3125 0-6.5125-.995-8.385-2.865-.4737153-.4904736-.4669405-1.270106.0152268-1.7522732.4821672-.4821673 1.2617996-.4889421 1.7522732-.0152268 1.1825 1.1825 4.585 2.135 6.615 2.135h23.125c1.7225 0 3.125-1.4025 3.125-3.125 0-.86-.35-1.665-.9875-2.2675-.3535283-.3331153-.4815516-.8411478-.3281065-1.3020195.153445-.4608716.5604527-.7907681 1.0431065-.8454805 1.5742567-.1762726 2.767082-1.5034251 2.775-3.0875 0-.86-.35-1.665-.9875-2.2675-.3535283-.3331153-.4815516-.8411478-.3281065-1.3020195.153445-.4608716.5604527-.7907681 1.0431065-.8454805 1.5734283-.1751858 2.7657182-1.5018637 2.7725-3.085 0-1.165-.655-2.225-1.71-2.765-.4048942-.2028266-.6673723-.6098787-.6850566-1.0623886s.2122262-.8788048.6000566-1.1126114c1.1225-.695 1.795-1.885 1.795-3.185 0-2.0675-1.6825-3.75-3.75-3.75h-17.5c-.4099084-.0020471-.7929839-.2041506-1.0260776-.5413396s-.2868257-.7669628-.1439224-1.1511604c.025-.0675 2.42-6.41 2.42-10.8075 0-4.0925-3.63-7.5-5-7.5-1.0775 0-1.98.3925-2.5.68v8.07c-.0002541.1804165-.0394822.3586487-.115.5225l-7.5 16.25c-.1195487.2571825-.3220536.4667312-.575.595l-2.5 1.25c-.3996909.1996221-.8755176.1708481-1.2482409-.0754833s-.5857176-.6727965-.55875-1.11875.2898-.8436446.6894909-1.0432667l2.1075-1.0525 7.2-15.6025v-8.475c0-.38.1725-.7375.47-.9775 1.3142887-.96747031 2.8981794-1.49980443 4.53-1.5225 2.8925 0 7.5 4.5775 7.5 10 0 3.42-1.225 7.6775-1.9875 10h15.7375c3.445 0 6.25 2.805 6.25 6.25 0 1.5775-.5875 3.0575-1.625 4.1875 1.0275 1.0325 1.625 2.435 1.625 3.9375-.0017886 2.1161542-1.1962873 4.0505651-3.0875 5 1.3748688 2.7618364.2569969 6.1154521-2.5 7.5.8604673 1.7437018.7607046 3.8079074-.2639051 5.4605038-1.0246098 1.6525964-2.8291468 2.6598419-4.7735949 2.6644962z"/></g></svg>