<svg height="60" viewBox="0 0 60 60" width="60" xmlns="http://www.w3.org/2000/svg"><path d="m140 0c5.403226 0 10.403226 1.35080707 15 4.05241935 4.596774 2.70161229 8.245968 6.35080645 10.947581 10.94758065 2.701612 4.5967742 4.052419 9.5967736 4.052419 15s-1.350807 10.4032258-4.052419 15c-2.701613 4.5967742-6.350807 8.2459684-10.947581 10.9475806-4.596774 2.7016123-9.596774 4.0524194-15 4.0524194s-10.403226-1.3508071-15-4.0524194c-4.596774-2.7016122-8.245968-6.3508064-10.947581-10.9475806-2.701612-4.5967742-4.052419-9.5967736-4.052419-15s1.350807-10.4032258 4.052419-15c2.701613-4.5967742 6.350807-8.24596836 10.947581-10.94758065 4.596774-2.70161228 9.596774-4.05241935 15-4.05241935zm-26.8 29.769863c0 5.2237437 1.42381 10.0054795 4.271429 14.3452055s6.623809 7.6347026 11.328571 9.8849315l-13.247619-35.2c-1.568255 3.4557084-2.352381 7.1123288-2.352381 10.969863zm27.109489 27.430137c3.180535 0 6.277372-.5267968 9.290511-1.5803922l-.251095-.3647058-8.537226-22.854902-8.411679 23.7058824c2.594648.7294117 5.231144 1.0941176 7.909489 1.0941176zm3.419888-39.84 9.780415 28.8 2.934125-9.48c.652027-2.16 1.100297-3.6800006 1.344807-4.56.407517-1.3599994.611276-2.52.611276-3.48 0-1.5200006-.24451-2.9600006-.733531-4.32-.326015-.8799994-.855787-1.92-1.589318-3.12l-.366765-.48c-.733531-1.2800006-1.263303-2.2400006-1.589318-2.88-.489021-1.0400006-.733531-2.0000006-.733531-2.88 0-1.2800006.44827-2.4 1.344807-3.36.896538-.96 1.996834-1.44 3.30089-1.44l.366766.12c-2.526608-2.24000061-5.358852-3.98000061-8.496736-5.22s-6.459149-1.86-9.963798-1.86c-4.645697 0-8.985757 1.08-13.020178 3.24-4.034422 2.16-7.274184 5.0799994-9.719288 8.76l1.711573.12c1.222552 0 2.811869-.0800006 4.767952-.24l2.445104-.12c.489021 0 .83541.1599994 1.039169.48s.244511.6800006.122255 1.08c-.122255.3999994-.427893.6-.916914.6l-3.178635.24 10.024926 29.04 5.86825-17.52-4.156677-11.4-2.934125-.36c-.407516 0-.69278-.18-.855786-.54s-.142632-.72.061128-1.08c.203759-.36.550148-.54 1.039169-.54l2.567359.12c1.956083.1599994 3.504649.24 4.645697.24s2.689614-.0800006 4.645697-.24l2.567359-.12c.407517 0 .733532.1599994.978042.48s.285262.6800006.122255 1.08c-.163006.3999994-.489021.6-.978041.6-1.059546.0800006-2.078339.1599994-3.05638.24zm9.470623 36.24c4.043243-2.4266667 7.254054-5.7026667 9.632432-9.828 2.378379-4.1253333 3.567568-8.6551105 3.567568-13.5893333 0-4.6106667-1.07027-8.9382229-3.210811-12.9826667.07928.8897772.118919 1.82.118919 2.7906667 0 2.9928895-.673874 6.2284438-2.021622 9.7066666z" fill="#3575d3" fill-rule="evenodd" transform="translate(-110)"/></svg>